<svg>
    <symbol id="search" aria-hidden="true" focusable="false" data-prefix="fas" data-icon="search" class="svg-inline--fa fa-search fa-w-16" role="img" xmlns="http://www.w3.org/2000/svg" viewBox="0 0 512 512">
        <path d="M505 442.7L405.3 343c-4.5-4.5-10.6-7-17-7H372c27.6-35.3 44-79.7 44-128C416 93.1 322.9 0 208 0S0 93.1 0 208s93.1 208 208 208c48.3 0 92.7-16.4 128-44v16.3c0 6.4 2.5 12.5 7 17l99.7 99.7c9.4 9.4 24.6 9.4 33.9 0l28.3-28.3c9.4-9.4 9.4-24.6.1-34zM208 336c-70.7 0-128-57.2-128-128 0-70.7 57.2-128 128-128 70.7 0 128 57.2 128 128 0 70.7-57.2 128-128 128z">
        </path>
    </symbol>

    <symbol id="star" aria-hidden="true" focusable="false" data-prefix="far" data-icon="star" class="svg-inline--fa fa-star fa-w-18" role="img" xmlns="http://www.w3.org/2000/svg" viewBox="0 0 576 512">
        <path d="M528.1 171.5L382 150.2 316.7 17.8c-11.7-23.6-45.6-23.9-57.4 0L194 150.2 47.9 171.5c-26.2 3.8-36.7 36.1-17.7 54.6l105.7 103-25 145.5c-4.5 26.3 23.2 46 46.4 33.7L288 439.6l130.7 68.7c23.2 12.2 50.9-7.4 46.4-33.7l-25-145.5 105.7-103c19-18.5 8.5-50.8-17.7-54.6zM388.6 312.3l23.7 138.4L288 385.4l-124.3 65.3 23.7-138.4-100.6-98 139-20.2 62.2-126 62.2 126 139 20.2-100.6 98z">
        </path>
    </symbol>

    <symbol id="clock" aria-hidden="true" focusable="false" data-prefix="far" data-icon="clock" class="svg-inline--fa fa-clock fa-w-16" role="img" xmlns="http://www.w3.org/2000/svg" viewBox="0 0 512 512">
        <path d="M256 8C119 8 8 119 8 256s111 248 248 248 248-111 248-248S393 8 256 8zm0 448c-110.5 0-200-89.5-200-200S145.5 56 256 56s200 89.5 200 200-89.5 200-200 200zm61.8-104.4l-84.9-61.7c-3.1-2.3-4.9-5.9-4.9-9.7V116c0-6.6 5.4-12 12-12h32c6.6 0 12 5.4 12 12v141.7l66.8 48.6c5.4 3.9 6.5 11.4 2.6 16.8L334.6 349c-3.9 5.3-11.4 6.5-16.8 2.6z">
        </path>
    </symbol>

    <symbol id="calendar" aria-hidden="true" focusable="false" data-prefix="fal" data-icon="calendar-alt" role="img" xmlns="http://www.w3.org/2000/svg" viewBox="0 0 448 512" class="svg-inline--fa fa-calendar-alt fa-w-14 fa-3x">
        <path d="M400 64h-48V12c0-6.6-5.4-12-12-12h-8c-6.6 0-12 5.4-12 12v52H128V12c0-6.6-5.4-12-12-12h-8c-6.6 0-12 5.4-12 12v52H48C21.5 64 0 85.5 0 112v352c0 26.5 21.5 48 48 48h352c26.5 0 48-21.5 48-48V112c0-26.5-21.5-48-48-48zM48 96h352c8.8 0 16 7.2 16 16v48H32v-48c0-8.8 7.2-16 16-16zm352 384H48c-8.8 0-16-7.2-16-16V192h384v272c0 8.8-7.2 16-16 16zM148 320h-40c-6.6 0-12-5.4-12-12v-40c0-6.6 5.4-12 12-12h40c6.6 0 12 5.4 12 12v40c0 6.6-5.4 12-12 12zm96 0h-40c-6.6 0-12-5.4-12-12v-40c0-6.6 5.4-12 12-12h40c6.6 0 12 5.4 12 12v40c0 6.6-5.4 12-12 12zm96 0h-40c-6.6 0-12-5.4-12-12v-40c0-6.6 5.4-12 12-12h40c6.6 0 12 5.4 12 12v40c0 6.6-5.4 12-12 12zm-96 96h-40c-6.6 0-12-5.4-12-12v-40c0-6.6 5.4-12 12-12h40c6.6 0 12 5.4 12 12v40c0 6.6-5.4 12-12 12zm-96 0h-40c-6.6 0-12-5.4-12-12v-40c0-6.6 5.4-12 12-12h40c6.6 0 12 5.4 12 12v40c0 6.6-5.4 12-12 12zm192 0h-40c-6.6 0-12-5.4-12-12v-40c0-6.6 5.4-12 12-12h40c6.6 0 12 5.4 12 12v40c0 6.6-5.4 12-12 12z" class="">
        </path>
    </symbol>

    <symbol id="video" aria-hidden="true" focusable="false" data-prefix="far" data-icon="video" role="img" xmlns="http://www.w3.org/2000/svg" viewBox="0 0 576 512" class="svg-inline--fa fa-video fa-w-18 fa-3x">
        <path d="M543.9 96c-6.2 0-12.5 1.8-18.2 5.7L416 170.1v-58.3c0-26.4-23.2-47.8-51.8-47.8H51.8C23.2 64 0 85.4 0 111.8v288.4C0 426.6 23.2 448 51.8 448h312.4c28.6 0 51.8-21.4 51.8-47.8v-58.3l109.7 68.3c5.7 4 12.1 5.7 18.2 5.7 16.6 0 32.1-13 32.1-31.5V127.5C576 109 560.5 96 543.9 96zM368 200v198.9c-.6.4-1.8 1.1-3.8 1.1H51.8c-2 0-3.2-.6-3.8-1.1V113.1c.6-.4 1.8-1.1 3.8-1.1h312.4c2 0 3.2.6 3.8 1.1V200zm160 155.2l-112-69.8v-58.7l112-69.8v198.3z" class="">
        </path>
    </symbol>

    <symbol id="globe1" aria-hidden="true" focusable="false" data-prefix="fas" data-icon="globe" role="img" xmlns="http://www.w3.org/2000/svg" viewBox="0 0 496 512" class="svg-inline--fa fa-globe fa-w-16 fa-3x">
        <path d="M336.5 160C322 70.7 287.8 8 248 8s-74 62.7-88.5 152h177zM152 256c0 22.2 1.2 43.5 3.3 64h185.3c2.1-20.5 3.3-41.8 3.3-64s-1.2-43.5-3.3-64H155.3c-2.1 20.5-3.3 41.8-3.3 64zm324.7-96c-28.6-67.9-86.5-120.4-158-141.6 24.4 33.8 41.2 84.7 50 141.6h108zM177.2 18.4C105.8 39.6 47.8 92.1 19.3 160h108c8.7-56.9 25.5-107.8 49.9-141.6zM487.4 192H372.7c2.1 21 3.3 42.5 3.3 64s-1.2 43-3.3 64h114.6c5.5-20.5 8.6-41.8 8.6-64s-3.1-43.5-8.5-64zM120 256c0-21.5 1.2-43 3.3-64H8.6C3.2 212.5 0 233.8 0 256s3.2 43.5 8.6 64h114.6c-2-21-3.2-42.5-3.2-64zm39.5 96c14.5 89.3 48.7 152 88.5 152s74-62.7 88.5-152h-177zm159.3 141.6c71.4-21.2 129.4-73.7 158-141.6h-108c-8.8 56.9-25.6 107.8-50 141.6zM19.3 352c28.6 67.9 86.5 120.4 158 141.6-24.4-33.8-41.2-84.7-50-141.6h-108z" class="">
        </path>
    </symbol>

    <symbol id="globe" aria-hidden="true" focusable="false" data-prefix="fal" data-icon="globe" role="img" xmlns="http://www.w3.org/2000/svg" viewBox="0 0 496 512" class="svg-inline--fa fa-globe fa-w-16 fa-3x">
        <path d="M248 8C111 8 0 119 0 256s111 248 248 248 248-111 248-248S385 8 248 8zm193.2 152h-82.5c-9-44.4-24.1-82.2-43.2-109.1 55 18.2 100.2 57.9 125.7 109.1zM336 256c0 22.9-1.6 44.2-4.3 64H164.3c-2.7-19.8-4.3-41.1-4.3-64s1.6-44.2 4.3-64h167.4c2.7 19.8 4.3 41.1 4.3 64zM248 40c26.9 0 61.4 44.1 78.1 120H169.9C186.6 84.1 221.1 40 248 40zm-67.5 10.9c-19 26.8-34.2 64.6-43.2 109.1H54.8c25.5-51.2 70.7-90.9 125.7-109.1zM32 256c0-22.3 3.4-43.8 9.7-64h90.5c-2.6 20.5-4.2 41.8-4.2 64s1.5 43.5 4.2 64H41.7c-6.3-20.2-9.7-41.7-9.7-64zm22.8 96h82.5c9 44.4 24.1 82.2 43.2 109.1-55-18.2-100.2-57.9-125.7-109.1zM248 472c-26.9 0-61.4-44.1-78.1-120h156.2c-16.7 75.9-51.2 120-78.1 120zm67.5-10.9c19-26.8 34.2-64.6 43.2-109.1h82.5c-25.5 51.2-70.7 90.9-125.7 109.1zM363.8 320c2.6-20.5 4.2-41.8 4.2-64s-1.5-43.5-4.2-64h90.5c6.3 20.2 9.7 41.7 9.7 64s-3.4 43.8-9.7 64h-90.5z" class="">
    </path>
    </symbol>

    <symbol id="loader" xmlns="http://www.w3.org/2000/svg" xmlns:xlink="http://www.w3.org">
        <path id="camera-body" d="M 51.5625 0 C 50.667739 -0.00962983 49.756943 0.05800477 48.84375 0.1875 C 41.018415 1.2971691 35.117198 7.3376842 33.8125 14.71875 C 30.504071 7.9918491 23.138091 3.8277945 15.3125 4.9375 C 5.573576 6.3185261 -1.1937811 15.321773 0.1875 25.0625 C 1.030765 31.00916 4.7245026 35.850708 9.6875 38.40625 L 10.59375 44.84375 L 41.21875 40.5 C 42.618434 40.301472 43.966737 41.101389 44.15625 42.4375 C 44.34576 43.773612 43.274684 44.957723 41.875 45.15625 L 11.25 49.5 L 12.40625 57.6875 C 12.593105 59.005185 13.837018 59.937079 15.15625 59.75 L 64.25 52.78125 C 65.567815 52.594377 66.499355 51.348937 66.3125 50.03125 L 63.5625 30.78125 C 67.618077 26.946961 69.843395 21.259142 69 15.3125 C 67.748216 6.4849658 60.211858 0.09304631 51.5625 0 z M 51.28125 3.75 C 58.168631 3.6506107 64.22589 8.6859174 65.21875 15.6875 C 66.295328 23.279482 61.029156 30.329715 53.4375 31.40625 C 45.84552 32.482829 38.795329 27.18573 37.71875 19.59375 C 36.641441 11.998855 41.938942 4.9828747 49.53125 3.90625 C 50.124347 3.8221462 50.697574 3.7584222 51.28125 3.75 z M 17.5625 8.53125 C 24.449868 8.4318561 30.507144 13.46718 31.5 20.46875 C 32.576577 28.060719 27.310389 35.110969 19.71875 36.1875 C 12.126783 37.264077 5.0765804 31.966969 4 24.375 C 2.9226914 16.780121 8.2202041 9.7641225 15.8125 8.6875 C 16.405598 8.603395 16.978824 8.5396714 17.5625 8.53125 z M 79.71875 27.46875 L 66.9375 33.65625 L 68.53125 44.8125 L 82.53125 47.21875 L 79.71875 27.46875 z M 41.71875 41.0625 C 41.582761 41.058251 41.422178 41.073761 41.28125 41.09375 L 8.15625 45.78125 L 7.90625 44.09375 L 2.78125 43.9375 L 4 52.53125 L 8.875 50.9375 L 8.625 49.25 L 41.78125 44.5625 C 42.908673 44.40259 43.699053 43.493996 43.5625 42.53125 C 43.443014 41.688847 42.670671 41.092246 41.71875 41.0625 z M 51.53125 57.21875 L 28.625 60.4375 C 28.625117 63.279515 28.625057 61.501735 28.625 64.34375 L 30.90625 64.34375 L 32.40625 64.34375 L 17.21875 97.46875 C 16.804629 98.371268 17.19123 99.429629 18.09375 99.84375 C 18.996268 100.25787 20.054629 99.87127 20.46875 98.96875 L 36.34375 64.34375 L 38.28125 64.34375 L 38.28125 98.21875 C 38.28125 99.211743 39.069507 100 40.0625 100 C 41.055493 100 41.875 99.211743 41.875 98.21875 L 41.875 64.34375 L 43.6875 64.34375 L 59.71875 98.96875 C 60.136118 99.869771 61.192729 100.26112 62.09375 99.84375 C 62.994771 99.426382 63.386118 98.338521 62.96875 97.4375 L 47.65625 64.34375 L 49.09375 64.34375 L 51.53125 64.34375 L 51.53125 57.21875 z "></path>
        <path id="reel-1" d="m 17.763265,10.60917 c -1.849868,0 -3.349902,1.500036 -3.349902,3.349902 0,1.849868 1.500034,3.34863 3.349902,3.34863 1.849865,0 3.348629,-1.498762 3.348629,-3.34863 0,-1.849866 -1.498764,-3.349902 -3.348629,-3.349902 z m -8.0539896,5.851215 c -1.849868,0 -3.3499023,1.500032 -3.3499023,3.349898 0,1.849866 1.5000343,3.349897 3.3499023,3.349897 1.8498656,0 3.3498996,-1.500031 3.3498996,-3.349897 0,-1.849866 -1.500034,-3.349898 -3.3498996,-3.349898 z m 16.1016246,0 c -1.849868,0 -3.3499,1.500032 -3.3499,3.349898 0,1.849866 1.500032,3.349897 3.3499,3.349897 1.849865,0 3.348629,-1.500031 3.348629,-3.349897 0,-1.849866 -1.498764,-3.349898 -3.348629,-3.349898 z m -13.023579,9.460259 c -1.849867,0 -3.3498994,1.500032 -3.3498994,3.349902 0,1.849865 1.5000324,3.348629 3.3498994,3.348629 1.849867,0 3.3499,-1.498764 3.3499,-3.348629 0,-1.84987 -1.500033,-3.349902 -3.3499,-3.349902 z m 9.950613,0 c -1.849866,0 -3.348629,1.500032 -3.348629,3.349902 0,1.849865 1.498763,3.348629 3.348629,3.348629 1.849865,0 3.349901,-1.498764 3.349901,-3.348629 0,-1.84987 -1.500036,-3.349902 -3.349901,-3.349902 z">
        </path>
        <path id="reel-2" d="m 51.483904,5.8171007 c -1.849872,0 -3.349908,1.5000388 -3.349908,3.3499074 0,1.8498709 1.500036,3.3486359 3.349908,3.3486359 1.849868,0 3.348635,-1.498765 3.348635,-3.3486359 0,-1.8498686 -1.498767,-3.3499074 -3.348635,-3.3499074 z M 43.4299,11.668326 c -1.849872,0 -3.349908,1.500034 -3.349908,3.349904 0,1.849869 1.500036,3.349903 3.349908,3.349903 1.849869,0 3.349906,-1.500034 3.349906,-3.349903 0,-1.84987 -1.500037,-3.349904 -3.349906,-3.349904 z m 16.101654,0 c -1.849871,0 -3.349907,1.500034 -3.349907,3.349904 0,1.849869 1.500036,3.349903 3.349907,3.349903 1.849867,0 3.348635,-1.500034 3.348635,-3.349903 0,-1.84987 -1.498768,-3.349904 -3.348635,-3.349904 z m -13.023602,9.460276 c -1.849871,0 -3.349907,1.500034 -3.349907,3.349908 0,1.849869 1.500036,3.348635 3.349907,3.348635 1.849869,0 3.349905,-1.498766 3.349905,-3.348635 0,-1.849874 -1.500036,-3.349908 -3.349905,-3.349908 z m 9.950632,0 c -1.849872,0 -3.348637,1.500034 -3.348637,3.349908 0,1.849869 1.498765,3.348635 3.348637,3.348635 1.849867,0 3.349905,-1.498766 3.349905,-3.348635 0,-1.849874 -1.500038,-3.349908 -3.349905,-3.349908 z">
        </path>
    </symbol>

    <symbol id="back" aria-hidden="true" focusable="false" data-prefix="far" data-icon="long-arrow-left" role="img" xmlns="http://www.w3.org/2000/svg" viewBox="0 0 448 512" class="svg-inline--fa fa-long-arrow-left fa-w-14 fa-2x">
        <path d="M152.485 396.284l19.626-19.626c4.753-4.753 4.675-12.484-.173-17.14L91.22 282H436c6.627 0 12-5.373 12-12v-28c0-6.627-5.373-12-12-12H91.22l80.717-77.518c4.849-4.656 4.927-12.387.173-17.14l-19.626-19.626c-4.686-4.686-12.284-4.686-16.971 0L3.716 247.515c-4.686 4.686-4.686 12.284 0 16.971l131.799 131.799c4.686 4.685 12.284 4.685 16.97-.001z" class="">
        </path>
    </symbol>
</svg>